<?xml version="1.0" standalone="no"?>
<!DOCTYPE svg PUBLIC "-//W3C//DTD SVG 20010904//EN"
 "http://www.w3.org/TR/2001/REC-SVG-20010904/DTD/svg10.dtd">
<svg version="1.0" xmlns="http://www.w3.org/2000/svg"
 width="1000.000000pt" height="1000.000000pt" viewBox="0 0 1000.000000 1000.000000"
 preserveAspectRatio="xMidYMid meet">
<metadata>
Created by potrace 1.14, written by Peter Selinger 2001-2017
</metadata>
<g transform="translate(0.000000,1000.000000) scale(0.100000,-0.100000)"
fill="#000000" stroke="none">
<path d="M1267 9110 c-46 -14 -93 -56 -116 -103 l-21 -44 2 -2169 3 -2169 24
-38 c29 -47 84 -86 134 -93 20 -4 37 -10 37 -15 0 -5 -38 -102 -84 -216 -284
-706 -591 -1259 -910 -1640 -46 -54 -140 -153 -210 -220 l-127 -121 3 -58 3
-57 80 63 c449 357 919 1122 1305 2123 l53 137 1288 0 1289 0 0 -42 c0 -188
41 -755 76 -1048 135 -1143 421 -1794 833 -1890 120 -28 291 7 424 87 32 19
59 34 60 32 1 -2 12 -22 23 -44 12 -22 40 -53 64 -70 l42 -30 738 -5 739 -5
52 -75 c235 -342 535 -546 905 -616 111 -20 380 -15 493 11 184 41 402 133
586 247 282 175 609 474 879 803 l66 80 0 83 0 83 -82 -103 c-375 -473 -781
-820 -1158 -989 -200 -90 -373 -129 -565 -129 -252 0 -456 63 -665 203 -95 65
-255 219 -333 322 l-60 80 816 5 815 5 43 30 c23 17 53 50 66 74 l23 44 -2
2173 -3 2172 -30 43 c-16 23 -50 53 -74 66 l-45 23 -1602 -2 -1602 -3 -43 -30
c-23 -16 -53 -50 -66 -74 l-23 -44 0 -2102 0 -2103 -62 -40 c-175 -114 -337
-141 -472 -79 -71 33 -181 137 -246 232 -196 290 -338 778 -424 1465 -38 301
-59 556 -82 1027 l-6 131 185 4 185 3 43 30 c23 17 53 50 66 74 l23 44 -2
2173 -3 2172 -30 43 c-16 23 -50 53 -74 66 l-44 23 -1586 -1 c-872 0 -1599 -5
-1614 -9z m3219 -124 l34 -34 0 -2147 0 -2147 -34 -34 -34 -34 -165 0 -164 0
-8 219 c-8 237 -5 254 42 264 44 10 90 43 123 88 80 112 59 264 -48 346 -175
133 -421 -5 -399 -223 9 -91 60 -162 144 -202 l33 -16 0 -155 c0 -86 3 -193 7
-238 l6 -83 -1273 0 c-1208 0 -1272 1 -1265 18 4 9 40 114 79 232 l73 215 62
7 c77 9 135 40 178 96 84 110 64 266 -45 349 -175 133 -421 -5 -399 -223 7
-63 36 -123 78 -158 l32 -27 -32 -102 c-17 -56 -55 -169 -84 -252 l-53 -150
-37 -3 c-32 -3 -43 2 -72 31 l-35 35 0 2147 0 2147 34 34 34 34 1577 0 1577 0
34 -34z m4280 -3010 l34 -34 0 -2147 0 -2147 -34 -34 -34 -34 -830 0 -830 0
-42 77 c-48 89 -129 274 -155 353 -17 52 -17 55 0 65 41 24 77 60 103 104 23
39 27 57 27 121 0 90 -26 146 -93 197 -175 133 -421 -5 -399 -223 11 -110 82
-189 193 -218 l46 -12 39 -104 c22 -58 67 -161 99 -229 33 -68 60 -125 60
-127 0 -2 -309 -4 -686 -4 l-686 0 -34 34 c-56 56 -50 69 87 203 66 65 145
148 175 185 l55 66 37 -10 c52 -14 134 -4 184 24 154 85 170 308 30 415 -175
133 -421 -5 -399 -224 3 -29 18 -75 33 -102 l27 -50 -71 -83 c-39 -46 -98
-110 -131 -143 l-61 -59 0 2053 0 2053 34 34 34 34 1577 0 1577 0 34 -34z"/>
<path d="M2685 8704 c-124 -23 -206 -50 -323 -109 -130 -66 -213 -128 -313
-233 -289 -301 -389 -727 -268 -1135 27 -91 117 -267 178 -348 293 -386 792
-548 1264 -408 91 27 267 117 348 178 386 293 548 792 408 1264 -27 91 -117
267 -178 348 -62 81 -189 203 -267 256 -246 167 -567 238 -849 187z m330 -94
c153 -22 372 -98 361 -125 -3 -8 -91 -143 -197 -302 -106 -158 -234 -352 -285
-431 l-93 -142 40 -27 c23 -15 43 -22 48 -17 5 5 136 200 291 434 155 234 286
427 291 428 5 2 41 -22 79 -52 262 -212 411 -575 372 -909 -22 -190 -70 -326
-168 -474 -321 -484 -970 -616 -1451 -297 -484 321 -616 970 -297 1451 221
333 624 518 1009 463z"/>
<path d="M2398 5546 c-56 -20 -85 -42 -118 -88 -80 -111 -59 -263 48 -345 175
-133 421 5 399 223 -9 89 -57 158 -140 201 -43 22 -143 27 -189 9z"/>
<path d="M3198 5546 c-56 -20 -85 -42 -118 -88 -80 -111 -59 -263 48 -345 175
-133 421 5 399 223 -9 89 -57 158 -140 201 -43 22 -143 27 -189 9z"/>
<path d="M6965 5694 c-124 -23 -206 -50 -323 -109 -223 -113 -396 -285 -506
-503 -135 -268 -162 -573 -75 -865 27 -91 117 -267 178 -348 62 -81 189 -203
267 -256 291 -198 656 -253 997 -152 91 27 267 117 348 178 81 62 203 189 256
267 198 291 253 656 152 997 -27 91 -117 267 -178 348 -62 81 -189 203 -267
256 -244 166 -569 237 -849 187z m410 -108 c365 -78 659 -341 779 -694 143
-421 -5 -899 -362 -1166 -466 -350 -1120 -260 -1466 202 -223 296 -274 661
-143 1012 30 80 133 260 148 260 3 0 170 -152 371 -337 201 -186 375 -347 387
-357 22 -20 22 -20 51 15 16 19 29 37 30 40 0 4 -174 168 -387 365 l-386 358
54 49 c150 135 331 224 534 262 97 18 287 14 390 -9z"/>
<path d="M7478 2536 c-56 -20 -85 -42 -118 -88 -80 -111 -59 -263 48 -345 175
-133 421 5 399 223 -9 89 -57 158 -140 201 -43 22 -143 27 -189 9z"/>
<path d="M8278 2536 c-56 -20 -85 -42 -118 -88 -80 -111 -59 -263 48 -345 175
-133 421 5 399 223 -9 89 -57 158 -140 201 -43 22 -143 27 -189 9z"/>
<path d="M7550 8515 l0 -365 45 0 45 0 0 48 0 47 17 -33 c47 -96 217 -93 283
5 24 35 25 42 25 208 0 166 -1 173 -25 208 -36 53 -98 81 -165 74 -63 -6 -103
-30 -121 -72 -12 -27 -13 -16 -14 108 l0 137 -45 0 -45 0 0 -365z m279 101
c42 -22 51 -54 51 -191 0 -75 -5 -134 -12 -150 -35 -78 -180 -71 -214 10 -17
41 -19 212 -3 268 18 67 109 98 178 63z"/>
<path d="M7075 8695 c-59 -21 -110 -81 -124 -144 -14 -67 -14 -185 0 -253 26
-120 155 -185 293 -147 47 13 113 74 122 112 6 26 5 27 -35 27 -34 0 -46 -6
-70 -32 -24 -27 -36 -32 -87 -36 -50 -3 -63 -1 -88 19 -34 27 -56 75 -56 123
l0 36 173 2 172 3 -1 82 c-1 69 -5 88 -27 126 -49 83 -168 119 -272 82z m163
-82 c28 -17 52 -70 52 -113 l0 -30 -131 0 -132 0 7 48 c3 26 14 58 24 72 36
48 123 59 180 23z"/>
<path d="M6295 8678 c5 -22 85 -515 85 -524 0 -2 22 -4 50 -4 43 0 50 3 55 23
2 12 19 105 36 207 17 102 33 192 36 200 3 8 22 -84 42 -205 l36 -220 51 -3
50 -3 43 253 c23 139 45 263 48 276 5 20 2 22 -36 22 -32 0 -41 -4 -41 -17 0
-10 -14 -114 -32 -231 l-32 -213 -23 133 c-13 73 -30 177 -39 231 l-17 97 -46
0 -47 0 -39 -227 -39 -227 -33 220 c-18 120 -32 222 -33 227 0 4 -18 7 -40 7
-37 0 -40 -2 -35 -22z"/>
<path d="M8150 7615 l0 -365 45 0 45 0 0 190 c0 205 7 243 51 274 30 20 108
21 137 0 47 -32 52 -60 52 -269 l0 -195 46 0 45 0 -3 223 c-3 219 -3 224 -28
260 -64 95 -226 103 -280 15 l-20 -33 0 133 0 132 -45 0 -45 0 0 -365z"/>
<path d="M7667 7954 c-4 -4 -7 -40 -7 -81 l0 -73 -75 0 -75 0 0 -40 0 -40 74
0 74 0 4 -189 c3 -173 5 -192 24 -218 36 -49 77 -63 192 -63 l102 0 0 40 0 40
-93 0 c-131 0 -127 -7 -127 213 l0 177 110 0 110 0 0 40 0 40 -110 0 -109 0
-3 78 -3 77 -40 3 c-23 2 -44 0 -48 -4z"/>
<path d="M5855 7795 c-79 -29 -119 -107 -96 -192 20 -72 63 -93 243 -118 26
-3 55 -13 63 -21 24 -24 30 -65 14 -93 -22 -40 -56 -52 -131 -49 -71 4 -108
24 -108 60 0 15 -8 18 -45 18 -42 0 -45 -2 -45 -27 0 -41 32 -87 76 -109 30
-15 60 -19 134 -19 111 0 162 20 195 76 27 46 26 139 -2 176 -36 49 -65 62
-173 79 -80 12 -109 20 -122 36 -25 28 -22 65 7 93 21 22 33 25 95 25 62 0 74
-3 95 -25 14 -13 25 -29 25 -35 0 -7 16 -10 43 -8 37 3 42 6 39 27 -3 35 -37
76 -79 97 -50 24 -174 29 -228 9z"/>
<path d="M7111 7793 c-18 -9 -42 -31 -52 -47 l-19 -31 0 43 0 42 -45 0 -45 0
0 -275 0 -275 45 0 45 0 0 183 c0 200 8 246 47 277 32 25 108 27 141 4 47 -32
52 -60 52 -269 l0 -195 46 0 45 0 -3 223 c-3 211 -4 224 -26 259 -43 69 -154
99 -231 61z"/>
<path d="M6320 7794 c0 -4 45 -121 100 -259 l99 -252 -39 -104 c-22 -57 -40
-105 -40 -107 0 -2 21 -2 47 0 l47 3 128 340 c71 187 131 350 134 363 6 20 3
22 -39 22 l-45 0 -30 -82 c-16 -46 -49 -138 -72 -206 l-43 -122 -76 202 -76
203 -48 3 c-26 2 -47 0 -47 -4z"/>
</g>
</svg>
